<svg width="226" height="64" viewBox="0 0 226 64" fill="none" xmlns="http://www.w3.org/2000/svg">
<rect width="225.5" height="64" rx="25.6" fill="#3F357B"/>
<path d="M37.107 36.5967L35.9351 42.5H33.0933L34.3238 36.6553C34.6754 34.9756 34.9976 33.7939 35.2906 33.1104C35.5836 32.417 35.9498 31.8555 36.3892 31.4258C36.8384 30.9961 37.439 30.6299 38.191 30.3271L33.9576 24.5264H37.2828L43.8892 33.623C44.6216 32.9395 45.2027 32.1143 45.6324 31.1475C46.0718 30.1709 46.3599 29.0527 46.4966 27.793L46.8336 24.5264H49.6168L49.2798 27.7344C49.1724 28.8086 48.9771 29.751 48.6939 30.5615C48.4986 31.1182 48.2642 31.6504 47.9908 32.1582C47.7173 32.6562 47.3658 33.1738 46.9361 33.7109C46.5162 34.248 45.9693 34.8486 45.2955 35.5127L50.5836 42.5H47.1558L39.4214 31.9971C38.6402 32.3779 38.0836 33.0371 37.7515 33.9746C37.6539 34.2188 37.5513 34.5605 37.4439 35C37.3463 35.4395 37.2339 35.9717 37.107 36.5967ZM66.4198 40.6836C65.746 41.1328 64.9061 41.499 63.9003 41.7822C62.9042 42.0654 61.6542 42.2754 60.1503 42.4121C58.6464 42.5488 56.786 42.627 54.5692 42.6465L51.1415 24.5264H53.9393L55.7411 33.7695L56.8104 33.5645C57.3964 33.4277 57.8798 33.252 58.2606 33.0371C58.6415 32.8125 58.9442 32.5 59.1688 32.0996C59.3544 31.7871 59.496 31.4014 59.5936 30.9424C59.6913 30.4834 59.7645 29.9365 59.8134 29.3018L60.1796 24.5264H62.9628L62.5087 29.3311C62.4403 30.1416 62.3573 30.8447 62.2597 31.4404C62.162 32.0264 62.0448 32.5 61.9081 32.8613C61.6639 33.5938 61.2977 34.1602 60.8095 34.5605C60.3212 34.9512 59.5106 35.2979 58.3778 35.6006L56.1805 36.1133L56.8983 39.8926H57.2499C59.2128 39.8926 60.785 39.7803 61.9667 39.5557C63.1483 39.3213 64.0809 38.96 64.7645 38.4717C65.2235 38.1396 65.6093 37.7295 65.9218 37.2412C66.2343 36.7529 66.4979 36.1084 66.7128 35.3076C66.9276 34.5068 67.1083 33.4766 67.2548 32.2168L68.1776 24.5264H71.0048L70.0673 32.1143C69.872 33.8135 69.618 35.2148 69.3055 36.3184C68.993 37.4121 68.6024 38.3008 68.1337 38.9844C67.6747 39.6582 67.1034 40.2246 66.4198 40.6836ZM76.9826 24.5264V42.5H74.2873V24.5264H76.9826ZM88.2339 31.4844V42.5H80.0161V40.0098H85.5386V32.2461C85.5386 30.6641 85.4605 29.5459 85.3042 28.8916C85.148 28.2178 84.8745 27.7393 84.4839 27.4561C84.1031 27.1631 83.5513 27.0166 82.8286 27.0166H80.8511V24.5264H82.7407C84.3032 24.5264 85.4458 24.7412 86.1685 25.1709C86.8911 25.6104 87.4136 26.3281 87.7359 27.3242C88.0679 28.3105 88.2339 29.6973 88.2339 31.4844ZM103.5 39.7168C103.168 40.7031 102.641 41.416 101.918 41.8555C101.195 42.2852 100.058 42.5 98.505 42.5H98.3439V40.0098H98.5929C99.2668 40.0098 99.8039 39.8828 100.204 39.6289C100.595 39.375 100.873 38.9893 101.039 38.4717C101.205 37.9443 101.288 37.1484 101.288 36.084V27.0166H98.505V24.5264H108.217C110.912 24.5264 112.846 25.1025 114.018 26.2549C115.19 27.3975 115.776 29.3018 115.776 31.9678V42.5H113.08V31.9385C113.08 30.1416 112.714 28.8721 111.982 28.1299C111.259 27.3877 109.994 27.0166 108.188 27.0166H103.984V35.542C103.984 37.3389 103.822 38.7305 103.5 39.7168ZM129.019 24.2334C131.382 24.2334 133.106 24.9561 134.19 26.4014C135.284 27.8369 135.831 30.1221 135.831 33.2568V42.5H127.012V40.0098H133.106V33.5938C133.106 31.2012 132.798 29.4629 132.183 28.3789C131.568 27.2949 130.523 26.7529 129.048 26.7529C127.73 26.7529 126.646 27.3486 125.796 28.54C124.937 29.751 124.151 31.8555 123.438 34.8535L121.607 42.5H118.707L120.713 34.6338C120.938 33.7158 121.167 32.8857 121.402 32.1436C121.636 31.4014 121.866 30.7422 122.09 30.166L118.428 24.5264H121.607L123.438 27.5C124.2 26.3477 125.015 25.5176 125.884 25.0098C126.753 24.4922 127.798 24.2334 129.019 24.2334ZM139.889 40.127C141.764 39.4336 143.366 38.5547 144.694 37.4902C146.032 36.4355 147.048 35.2832 147.741 34.0332C148.444 32.7832 148.796 31.5137 148.796 30.2246C148.796 28.0859 147.653 27.0166 145.368 27.0166H138.088V18.1104H140.783V24.5264H145.646C149.562 24.5264 151.52 26.2695 151.52 29.7559C151.52 31.5527 151.091 33.2764 150.231 34.9268C149.372 36.5771 148.161 38.0615 146.598 39.3799C144.743 40.9619 142.507 42.2217 139.889 43.1592V40.127ZM169.041 40.6836C168.367 41.1328 167.527 41.499 166.522 41.7822C165.526 42.0654 164.276 42.2754 162.772 42.4121C161.268 42.5488 159.407 42.627 157.191 42.6465L153.763 24.5264H156.561L158.362 33.7695L159.432 33.5645C160.018 33.4277 160.501 33.252 160.882 33.0371C161.263 32.8125 161.566 32.5 161.79 32.0996C161.976 31.7871 162.117 31.4014 162.215 30.9424C162.313 30.4834 162.386 29.9365 162.435 29.3018L162.801 24.5264H165.584L165.13 29.3311C165.062 30.1416 164.979 30.8447 164.881 31.4404C164.783 32.0264 164.666 32.5 164.529 32.8613C164.285 33.5938 163.919 34.1602 163.431 34.5605C162.943 34.9512 162.132 35.2979 160.999 35.6006L158.802 36.1133L159.52 39.8926H159.871C161.834 39.8926 163.406 39.7803 164.588 39.5557C165.77 39.3213 166.702 38.96 167.386 38.4717C167.845 38.1396 168.231 37.7295 168.543 37.2412C168.856 36.7529 169.119 36.1084 169.334 35.3076C169.549 34.5068 169.73 33.4766 169.876 32.2168L170.799 24.5264H173.626L172.689 32.1143C172.493 33.8135 172.239 35.2148 171.927 36.3184C171.614 37.4121 171.224 38.3008 170.755 38.9844C170.296 39.6582 169.725 40.2246 169.041 40.6836ZM190.986 31.9678V42.5H188.276V31.9385C188.276 30.1416 187.91 28.8721 187.177 28.1299C186.455 27.3877 185.2 27.0166 183.413 27.0166H176.586V24.5264H183.456C185.253 24.5264 186.704 24.7803 187.807 25.2881C188.911 25.7861 189.716 26.582 190.224 27.6758C190.732 28.7598 190.986 30.1904 190.986 31.9678ZM179.575 30.8252V42.5H176.879V30.8252H179.575Z" fill="white"/>
</svg>
