<svg width="72" height="72" viewBox="0 0 72 72" fill="none" xmlns="http://www.w3.org/2000/svg">
<path d="M36.0016 0.929199C26.7037 0.939786 17.7897 4.63805 11.2151 11.2127C4.64049 17.7873 0.942227 26.7013 0.931641 35.9992C0.931641 45.3692 4.58164 54.1742 11.2066 60.7942C14.4544 64.0618 18.3183 66.6526 22.5745 68.4163C26.8307 70.1801 31.3945 71.0818 36.0016 71.0692C45.2995 71.0586 54.2136 67.3604 60.7882 60.7857C67.3628 54.2111 71.0611 45.2971 71.0716 35.9992C71.0611 26.7013 67.3628 17.7873 60.7882 11.2127C54.2136 4.63805 45.2995 0.939786 36.0016 0.929199ZM36.0016 5.9292C43.9739 5.93846 51.6169 9.10952 57.2541 14.7467C62.8913 20.3839 66.0624 28.027 66.0716 35.9992C66.0648 43.5599 63.1959 50.8377 58.0416 56.3692C54.6391 52.3413 50.2088 49.3106 45.2216 47.5992C46.953 46.1951 48.3496 44.4226 49.3097 42.4108C50.2697 40.399 50.7692 38.1984 50.7716 35.9692C50.7658 33.998 50.371 32.0472 49.61 30.2288C48.8489 28.4104 47.7366 26.76 46.3367 25.3722C44.9368 23.9843 43.2768 22.8863 41.4519 22.1411C39.6269 21.3959 37.6729 21.018 35.7016 21.0292C33.7312 21.0351 31.7814 21.4295 29.9636 22.1899C28.1458 22.9503 26.4959 24.0618 25.1082 25.4606C23.7205 26.8595 22.6223 28.5182 21.8764 30.342C21.1306 32.1658 20.7518 34.1188 20.7616 36.0892C20.7616 40.7342 22.9416 44.8392 26.2816 47.5792C21.3959 49.2444 17.0382 52.1737 13.6516 56.0692C8.6718 50.5721 5.91935 43.4165 5.93164 35.9992C5.9409 28.027 9.11196 20.3839 14.7492 14.7467C20.3864 9.10952 28.0294 5.93846 36.0016 5.9292ZM35.8266 26.0292C41.3116 26.0292 45.7666 30.4892 45.7666 36.0892C45.7602 38.6649 44.7543 41.1376 42.9607 42.9862C41.1671 44.8348 38.726 45.915 36.1516 45.9992C36.0066 45.9992 35.8666 45.9692 35.7216 45.9692C35.5966 45.9692 35.4766 45.9942 35.3516 45.9992C32.7652 45.898 30.3195 44.7949 28.5317 42.9231C26.7439 41.0513 25.7541 38.5576 25.7716 35.9692C25.7716 30.4892 30.2266 26.0292 35.8266 26.0292ZM35.3466 50.9892C35.4666 50.9942 35.5866 51.0292 35.7066 51.0292H35.8266C35.9366 51.0292 36.0266 50.9942 36.1366 50.9892C39.6248 51.0501 43.0585 51.8645 46.2025 53.3765C49.3464 54.8885 52.1263 57.0624 54.3516 59.7492C49.111 63.8434 42.652 66.068 36.0016 66.0692C29.2006 66.083 22.5991 63.7719 17.2916 59.5192C19.5227 56.8966 22.2868 54.7795 25.4 53.3087C28.5132 51.8379 31.904 51.0471 35.3466 50.9892Z" fill="#231F20"/>
</svg>
