<svg width="178" height="64" viewBox="0 0 178 64" fill="none" xmlns="http://www.w3.org/2000/svg">
<rect width="177.5" height="64" rx="25.6" fill="white"/>
<path d="M72.1361 31.9678V42.5H56.7406V24.5264H64.6068C67.3021 24.5264 69.2308 25.1025 70.3929 26.2549C71.555 27.4072 72.1361 29.3115 72.1361 31.9678ZM59.4359 40.0098H69.4261V31.9385C69.4261 30.1611 69.0648 28.8965 68.3421 28.1445C67.6293 27.3926 66.3744 27.0166 64.5775 27.0166H59.4359V40.0098ZM79.2272 24.5264V42.5H76.5319V24.5264H79.2272ZM95.3125 33.7695C95.3125 39.5898 92.5586 42.5 87.0508 42.5H82.3779V40.0098H87.1094C88.9746 40.0098 90.3516 39.4922 91.2402 38.457C92.1289 37.4219 92.5732 35.8691 92.5732 33.7988V33.2275C92.5732 31.1475 92.124 29.5947 91.2256 28.5693C90.3369 27.5342 88.9648 27.0166 87.1094 27.0166H82.3779V24.5264H87.0508C92.5586 24.5264 95.3125 27.4365 95.3125 33.2568V33.7695ZM101.027 24.5264V33.9746H98.3314V24.5264H101.027ZM105.569 33.0811C105.569 32.29 105.632 31.4941 105.759 30.6934C105.896 29.8828 106.072 29.1504 106.287 28.4961C106.511 27.8418 106.751 27.3486 107.005 27.0166H104.368V24.5264H114.094C116.79 24.5264 118.723 25.1025 119.895 26.2549C121.067 27.3975 121.653 29.3018 121.653 31.9678V33.2568C121.653 36.3818 120.95 38.7549 119.544 40.376C118.147 41.9873 116.101 42.793 113.406 42.793C110.73 42.793 108.753 42.041 107.473 40.5371C106.204 39.0234 105.569 36.709 105.569 33.5938V33.0811ZM109.407 27.0166C108.753 28.1689 108.425 30.1514 108.425 32.9639V33.7402C108.425 35.8887 108.855 37.5195 109.714 38.6328C110.584 39.7461 111.834 40.3027 113.464 40.3027C115.33 40.3027 116.677 39.751 117.507 38.6475C118.347 37.5439 118.767 35.7373 118.767 33.2275V31.9385C118.767 30.1221 118.421 28.8477 117.727 28.1152C117.034 27.3828 115.813 27.0166 114.065 27.0166H109.407Z" fill="black" fill-opacity="0.8"/>
</svg>
