<svg width="258" height="64" viewBox="0 0 258 64" fill="none" xmlns="http://www.w3.org/2000/svg">
<rect width="257.5" height="64" rx="25.6" fill="white"/>
<path d="M30.948 39.7168C30.616 40.7031 30.0886 41.416 29.366 41.8555C28.6433 42.2852 27.5056 42.5 25.9529 42.5H25.7918V40.0098H26.0408C26.7146 40.0098 27.2517 39.8828 27.6521 39.6289C28.0427 39.375 28.3211 38.9893 28.4871 38.4717C28.6531 37.9443 28.7361 37.1484 28.7361 36.084V27.0166H25.9529V24.5264H35.6648C38.3601 24.5264 40.2937 25.1025 41.4656 26.2549C42.6375 27.3975 43.2234 29.3018 43.2234 31.9678V42.5H40.5281V31.9385C40.5281 30.1416 40.1619 28.8721 39.4295 28.1299C38.7068 27.3877 37.4421 27.0166 35.6355 27.0166H31.4314V35.542C31.4314 37.3389 31.2703 38.7305 30.948 39.7168ZM49.6993 24.5264V33.9746H47.004V24.5264H49.6993ZM69.183 40.0098V42.5H53.4945V40.0098H64.5395V31.9385C64.5395 30.1416 64.1732 28.8721 63.4408 28.1299C62.7182 27.3877 61.4633 27.0166 59.6762 27.0166H54.183V24.5264H59.7055C62.4008 24.5264 64.3295 25.1025 65.4916 26.2549C66.6537 27.4072 67.2348 29.3115 67.2348 31.9678V40.0098H69.183ZM79.8789 40.127C81.7539 39.4336 83.3555 38.5547 84.6836 37.4902C86.0215 36.4355 87.0371 35.2832 87.7305 34.0332C88.4336 32.7832 88.7852 31.5137 88.7852 30.2246C88.7852 28.0859 87.6426 27.0166 85.3575 27.0166H78.0772V18.1104H80.7725V24.5264H85.6358C89.5518 24.5264 91.5098 26.2695 91.5098 29.7559C91.5098 31.5527 91.0801 33.2764 90.2207 34.9268C89.3614 36.5771 88.1504 38.0615 86.5879 39.3799C84.7325 40.9619 82.4961 42.2217 79.8789 43.1592V40.127ZM97.6341 24.5264V33.9746H94.9388V24.5264H97.6341ZM103.422 24.5264C104.271 24.5264 104.965 24.5947 105.502 24.7314C106.049 24.8584 106.498 25.1025 106.849 25.4639C107.201 25.8154 107.513 26.333 107.787 27.0166C107.933 27.3584 108.104 27.8906 108.299 28.6133C108.495 29.3262 108.719 30.2344 108.973 31.3379L111.522 42.5H108.856L107.201 35.1172C106.381 35.3223 105.78 35.5713 105.399 35.8643C105.028 36.1572 104.72 36.5918 104.476 37.168C104.349 37.4512 104.227 37.8223 104.11 38.2812C104.003 38.7305 103.895 39.2578 103.788 39.8633L103.304 42.5H100.536L101.049 39.834C101.273 38.6719 101.498 37.7344 101.722 37.0215C101.957 36.2988 102.25 35.7129 102.601 35.2637C102.884 34.8926 103.231 34.5703 103.641 34.2969C104.051 34.0137 104.642 33.7598 105.414 33.5352L106.747 33.1396C106.503 32.1045 106.288 31.2402 106.102 30.5469C105.917 29.8438 105.76 29.3115 105.633 28.9502C105.38 28.2275 105.101 27.7246 104.799 27.4414C104.496 27.1582 104.066 27.0166 103.509 27.0166H101.532V24.5264H103.422ZM123.857 31.9678V42.5H121.147V31.9385C121.147 30.1611 120.786 28.8965 120.063 28.1445C119.351 27.3926 118.096 27.0166 116.299 27.0166H110.806V24.5264H116.328C118.125 24.5264 119.575 24.7803 120.679 25.2881C121.782 25.7861 122.588 26.582 123.096 27.6758C123.604 28.7598 123.857 30.1904 123.857 31.9678ZM133.234 39.7168C132.902 40.7031 132.374 41.416 131.652 41.8555C130.929 42.2852 129.791 42.5 128.239 42.5H128.077V40.0098H128.326C129 40.0098 129.537 39.8828 129.938 39.6289C130.328 39.375 130.607 38.9893 130.773 38.4717C130.939 37.9443 131.022 37.1484 131.022 36.084V27.0166H128.239V24.5264H137.951C140.646 24.5264 142.579 25.1025 143.751 26.2549C144.923 27.3975 145.509 29.3018 145.509 31.9678V42.5H142.814V31.9385C142.814 30.1416 142.448 28.8721 141.715 28.1299C140.993 27.3877 139.728 27.0166 137.921 27.0166H133.717V35.542C133.717 37.3389 133.556 38.7305 133.234 39.7168ZM164.246 40.0098V42.5H148.557V40.0098H159.602V31.9385C159.602 30.1416 159.236 28.8721 158.504 28.1299C157.781 27.3877 156.526 27.0166 154.739 27.0166H149.246V24.5264H154.768C157.464 24.5264 159.392 25.1025 160.554 26.2549C161.716 27.4072 162.298 29.3115 162.298 31.9678V40.0098H164.246ZM188.741 31.9678V42.5H186.031V31.9385C186.031 30.1416 185.664 28.8721 184.932 28.1299C184.209 27.3877 182.954 27.0166 181.167 27.0166H174.341V24.5264H181.211C183.008 24.5264 184.458 24.7803 185.562 25.2881C186.665 25.7861 187.471 26.582 187.979 27.6758C188.487 28.7598 188.741 30.1904 188.741 31.9678ZM177.329 30.8252V42.5H174.634V30.8252H177.329ZM203.273 31.9678V42.5H200.563V31.9385C200.563 30.1611 200.202 28.8965 199.479 28.1445C198.766 27.3926 197.511 27.0166 195.714 27.0166H190.221V24.5264H195.744C197.541 24.5264 198.991 24.7803 200.094 25.2881C201.198 25.7861 202.004 26.582 202.511 27.6758C203.019 28.7598 203.273 30.1904 203.273 31.9678ZM211.858 32.5684V42.5H209.163V32.6855C209.163 31.6504 209.358 30.8105 209.749 30.166C210.149 29.5215 210.823 29.043 211.77 28.7305L206.761 27.0459V24.2627L215.286 27.1338V29.9316L213.689 29.3896C213.094 29.7119 212.693 29.9951 212.488 30.2393C212.068 30.7275 211.858 31.5039 211.858 32.5684ZM215.741 40.127C218.447 40.127 220.566 39.8779 222.099 39.3799L216.664 24.5264H219.638L224.443 38.2373C225.361 37.583 226.098 36.709 226.655 35.6152C227.221 34.5117 227.631 33.0664 227.885 31.2793C228.149 29.4922 228.281 27.2412 228.281 24.5264H231.108C231.108 29.0381 230.629 32.5732 229.672 35.1318C229.028 36.8311 228.124 38.2373 226.962 39.3506C225.8 40.4541 224.301 41.3037 222.465 41.8994C220.639 42.4854 218.398 42.8467 215.741 42.9834V40.127Z" fill="black" fill-opacity="0.8"/>
</svg>
